<?xml version="1.0" encoding="UTF-8"?>
<svg width="60px" height="50px" viewBox="0 0 60 50" version="1.1" xmlns="http://www.w3.org/2000/svg" xmlns:xlink="http://www.w3.org/1999/xlink">
    <title>LB0LFW9HAYOZR</title>
    <g id="审批工作台-添加评论" stroke="none" stroke-width="1" fill="none" fill-rule="evenodd">
        <g id="我审批-评论为空" transform="translate(-1170, -297)" fill="#E5E7EC">
            <g id="Modal/Draw/Basic/Small" transform="translate(960, 0)">
                <g id="LB0LFW9HAYOZR" transform="translate(210, 297)">
                    <path d="M57.5,0 L2.5,0 C1.11928813,0 0,1.11928813 0,2.5 L0,47.5 C0,48.8807119 1.11928813,50 2.5,50 L57.5,50 C58.8807119,50 60,48.8807119 60,47.5 L60,2.5 C60,1.11928813 58.8807119,0 57.5,0 Z M30,40 L10,40 L10,35 L30,35 L30,40 Z M50,27.5 L10,27.5 L10,22.5 L50,22.5 L50,27.5 Z M50,15 L10,15 L10,10 L50,10 L50,15 Z" id="形状"></path>
                </g>
            </g>
        </g>
    </g>
</svg>